<?xml version="1.0" encoding="UTF-8"?>
<svg xmlns="http://www.w3.org/2000/svg" xmlns:xlink="http://www.w3.org/1999/xlink" viewBox="0 0 30 30" width="30px" height="30px">
<g id="surface34443924">
<path style=" stroke:none;fill-rule:nonzero;fill:rgb(100%,100%,100%);fill-opacity:1;" d="M 15.003906 3 C 8.375 3 3 8.371094 3 15 C 3 21.628906 8.375 27 15.003906 27 C 25.015625 27 27.269531 17.707031 26.328125 13 L 15 13 L 15 17 L 22.738281 17 C 21.847656 20.449219 18.726562 23 15 23 C 10.582031 23 7 19.417969 7 15 C 7 10.582031 10.582031 7 15 7 C 17.007812 7 18.839844 7.746094 20.246094 8.96875 L 23.085938 6.128906 C 20.953125 4.183594 18.117188 3 15.003906 3 Z M 15.003906 3 "/>
</g>
</svg>
