<?xml version="1.0" encoding="UTF-8"?>
<svg xmlns="http://www.w3.org/2000/svg" xmlns:xlink="http://www.w3.org/1999/xlink" viewBox="0 0 30 30" width="30px" height="30px">
<g id="surface65981063">
<path style=" stroke:none;fill-rule:nonzero;fill:rgb(100%,100%,100%);fill-opacity:1;" d="M 10 3.75 C 6.554688 3.75 3.75 6.554688 3.75 10 L 3.75 20 C 3.75 23.445312 6.554688 26.25 10 26.25 L 20 26.25 C 23.445312 26.25 26.25 23.445312 26.25 20 L 26.25 10 C 26.25 6.554688 23.445312 3.75 20 3.75 Z M 10 6.25 L 20 6.25 C 22.066406 6.25 23.75 7.933594 23.75 10 L 23.75 20 C 23.75 22.066406 22.066406 23.75 20 23.75 L 10 23.75 C 7.933594 23.75 6.25 22.066406 6.25 20 L 6.25 10 C 6.25 7.933594 7.933594 6.25 10 6.25 Z M 21.25 7.5 C 20.558594 7.5 20 8.058594 20 8.75 C 20 9.441406 20.558594 10 21.25 10 C 21.941406 10 22.5 9.441406 22.5 8.75 C 22.5 8.058594 21.941406 7.5 21.25 7.5 Z M 15 8.75 C 11.554688 8.75 8.75 11.554688 8.75 15 C 8.75 18.445312 11.554688 21.25 15 21.25 C 18.445312 21.25 21.25 18.445312 21.25 15 C 21.25 11.554688 18.445312 8.75 15 8.75 Z M 15 11.25 C 17.066406 11.25 18.75 12.933594 18.75 15 C 18.75 17.066406 17.066406 18.75 15 18.75 C 12.933594 18.75 11.25 17.066406 11.25 15 C 11.25 12.933594 12.933594 11.25 15 11.25 Z M 15 11.25 "/>
</g>
</svg>
