<?xml version="1.0" encoding="UTF-8"?>
<svg xmlns="http://www.w3.org/2000/svg" xmlns:xlink="http://www.w3.org/1999/xlink" viewBox="0 0 30 30" width="30px" height="30px">
<g id="surface34391045">
<path style=" stroke:none;fill-rule:nonzero;fill:rgb(100%,100%,100%);fill-opacity:1;" d="M 24 4 L 6 4 C 4.894531 4 4 4.894531 4 6 L 4 24 C 4 25.105469 4.894531 26 6 26 L 16 26 L 16 17 L 13 17 L 13 14 L 16 14 L 16 12.390625 C 16 9.339844 17.484375 8 20.019531 8 C 21.234375 8 21.878906 8.089844 22.179688 8.132812 L 22.179688 11 L 20.453125 11 C 19.375 11 19 11.566406 19 12.71875 L 19 14 L 22.152344 14 L 21.726562 17 L 19 17 L 19 26 L 24 26 C 25.105469 26 26 25.105469 26 24 L 26 6 C 26 4.894531 25.105469 4 24 4 Z M 24 4 "/>
</g>
</svg>
